<svg id="图层_1" data-name="图层 1" xmlns="http://www.w3.org/2000/svg" viewBox="0 0 221.35 93.17"><defs><style>.cls-1{fill:#231815;}.cls-1,.cls-2,.cls-3{fill-rule:evenodd;}.cls-2{fill:#af194a;}.cls-3{fill:#4d7f37;}</style></defs><title>logo</title><path class="cls-1" d="M1056.41,575.51h-23.86c-3.27-.07-4.8-1.32-4.8-4V555.21h4.89v3.91h4.92v3.3h-4.92v9.52h23.88c1.64,0,2-.84,2.11-1.2a1.91,1.91,0,0,0-1.23-2c-1.89-.84-6.37-2.48-10-3.79l-1.41-.51c-3.61-1.32-5.06-3.24-4.28-5.7.56-1.81,2.73-3,5.52-3h10.36v3.58h-10a.93.93,0,0,0-1,.59c0,.21,0,.75,1.3,1.24l.68.25c2.8,1,9.34,3.42,12,4.78,2.15,1.1,3.19,2.64,3.07,4.57C1063.43,573.9,1061,575.51,1056.41,575.51ZM1027,589.23h1v-3.11a.56.56,0,0,1,.2-.43.63.63,0,0,1,.48-.21.68.68,0,0,1,.5.19.62.62,0,0,1,.2.45v3.11h1.06a.51.51,0,0,1,.39.21.74.74,0,0,1,0,1,.52.52,0,0,1-.36.18h-1.07V595l.72-.64c.25-.22.47-.25.66-.11a.7.7,0,0,1,.3.55,1.12,1.12,0,0,1-.28.7,8.18,8.18,0,0,1-1.4,1.21v5.7a.7.7,0,0,1-.2.5.73.73,0,0,1-.48.21.59.59,0,0,1-.49-.2.66.66,0,0,1-.21-.51v-5l-.68.34c-.15.07-.46.19-.9.35a3,3,0,0,1-1,.24.84.84,0,0,1-.56-.18.58.58,0,0,1-.19-.52.65.65,0,0,1,.27-.51,3.37,3.37,0,0,1,.92-.37,19.19,19.19,0,0,0,2.16-.92v-5.2h-1.14c0,.26-.08.46-.1.58l-.37,1.78a1.63,1.63,0,0,1-.37.91.71.71,0,0,1-.52.18.57.57,0,0,1-.48-.19.76.76,0,0,1-.18-.44,2.67,2.67,0,0,1,.17-.78,14.22,14.22,0,0,0,.56-2.52c.13-.93.2-1.68.22-2.24s0-.94.06-1.11a1,1,0,0,1,.17-.43.86.86,0,0,1,.61-.2c.32,0,.5.26.52.82l-.1,1.71Zm-7.54-29.66a2.29,2.29,0,1,1,2.75-2.24A2.54,2.54,0,0,1,1019.41,559.57Zm-26.5,15.85v0h-.21a8.91,8.91,0,0,1-1.42-.19c-2.15-.49-3.12-1.51-3.12-3.31V552.4h4.89v6.13a29.7,29.7,0,0,1,11.89-.14,9.54,9.54,0,0,1,6.34,4.33,7.62,7.62,0,0,1,.41,6.63C1009.74,574.37,1003.94,576.24,992.91,575.42Zm12.43-12.57c-2.52-1.72-7.1-1.84-12.29-.34v9.1c6.67.55,10.93,0,13-1.79a3.85,3.85,0,0,0,1.37-3.06A4.57,4.57,0,0,0,1005.34,562.85ZM972.19,562h10.68v3.57H972.19Zm.17,25.62h7.32a.83.83,0,0,1,.62.27.72.72,0,0,1,.23.57.75.75,0,0,1-.28.5.82.82,0,0,1-.57.21h-7.32v2.68h6.48a.81.81,0,0,1,.6.24.72.72,0,0,1,.25.54.73.73,0,0,1-.25.49.92.92,0,0,1-.6.2H964.51a1,1,0,0,1-.61-.19.71.71,0,0,1-.28-.49.63.63,0,0,1,.21-.53.9.9,0,0,1,.67-.26h6.26v-2.68h-7.21a.81.81,0,0,1-.59-.21.74.74,0,0,1-.25-.52.72.72,0,0,1,.23-.56.77.77,0,0,1,.61-.26h7.21v-1.39a.76.76,0,0,1,.23-.59.75.75,0,0,1,1.12,0,.83.83,0,0,1,.25.59Zm-9.84-12.25a45.7,45.7,0,0,1-11.1-.14,17,17,0,0,1-8.67-3.64,9.28,9.28,0,0,1-3.39-6.87c-.11-4.16,2.34-7.78,6.71-9.91,8.3-4,17.81-.91,19.18-.42l-1.83,3.39a25.6,25.6,0,0,0-11.83-.67c-4.66,1-7.19,3.56-7.11,7.23a5.88,5.88,0,0,0,2.24,4.6c2.77,2.28,8.15,3.18,14.75,2.48h.16v-5.87H951v-3.69H963c2.15,0,3.48,1,3.48,2.54v7.72C966.52,574.39,964.35,575.13,962.52,575.35Zm-84.33-21.28h17.94l17.67,49H878.19Zm9.66-8.94a13,13,0,1,1,13-13A13,13,0,0,1,887.85,545.13Zm77.63,50.18a2,2,0,0,1,1.16-.24h10a1.59,1.59,0,0,1,1.11.29,1.86,1.86,0,0,1,.41.69,2.93,2.93,0,0,1,.13.86v3.79a2.81,2.81,0,0,1-.17,1,1.37,1.37,0,0,1-.48.62,2.63,2.63,0,0,1-1.34.22H967a3,3,0,0,1-1.44-.26,1.39,1.39,0,0,1-.45-.59,2.41,2.41,0,0,1-.15-.93v-4a2.43,2.43,0,0,1,.13-.89A1.37,1.37,0,0,1,965.48,595.31Zm.83,4.84a1.56,1.56,0,0,0,.09.65.49.49,0,0,0,.31.24,2.34,2.34,0,0,0,.77.08h8.62a1,1,0,0,0,.6-.15.62.62,0,0,0,.14-.22,1.27,1.27,0,0,0,0-.41V597.4c0-.32,0-.53-.14-.62a.75.75,0,0,0-.27-.19,4.4,4.4,0,0,0-1-.05h-8.12a1.46,1.46,0,0,0-.88.16,1,1,0,0,0-.18.7Zm27.92,1a2.71,2.71,0,0,0,.21-.37,2.31,2.31,0,0,0,.08-.72V586.65a.87.87,0,0,1,.25-.63.77.77,0,0,1,.58-.27.78.78,0,0,1,.53.27.88.88,0,0,1,.24.63v3.55H1001a.94.94,0,0,1,.62.22.72.72,0,0,1,.28.52.7.7,0,0,1-.24.56.88.88,0,0,1-.66.26h-4.87v9.17c1.4-.24,2.54-.47,3.42-.7a10.84,10.84,0,0,1,1.67-.36c.49,0,.74.17.75.49a1,1,0,0,1-.22.74,1.42,1.42,0,0,1-.74.34c-.34.06-1,.21-2.14.47s-2.17.45-3.22.6a2,2,0,0,1-1.11-.06.92.92,0,0,1-.46-.51.83.83,0,0,1,0-.62A1.48,1.48,0,0,1,994.23,601.1Zm9.18-15.37a.74.74,0,0,1,.58.24.92.92,0,0,1,.25.65v4.73a23.72,23.72,0,0,0,2.42-1.2,16.57,16.57,0,0,0,1.75-1.14c.52-.39.94-.69,1.26-.89a.55.55,0,0,1,.8.06,1.12,1.12,0,0,1,.34.69c0,.22-.17.49-.57.83a11.44,11.44,0,0,1-2.33,1.55c-1,.52-2.19,1.16-3.67,1.89v6.72a1.45,1.45,0,0,0,.19.88,1.1,1.1,0,0,0,.59.34,11.1,11.1,0,0,0,1.65.14c1.32.06,2.13-.1,2.44-.47a3.16,3.16,0,0,0,.45-2,3.53,3.53,0,0,1,.18-1.64.64.64,0,0,1,.55-.19.85.85,0,0,1,.59.23,1.44,1.44,0,0,1,.22,1c0,.43,0,.92-.08,1.45a9.1,9.1,0,0,1-.26,1.48,2.48,2.48,0,0,1-.81,1.2c-.4.34-1.48.51-3.2.49a7,7,0,0,1-3.26-.53,1.77,1.77,0,0,1-.86-1.64v-14a.89.89,0,0,1,.23-.62A.77.77,0,0,1,1003.41,585.73Zm18.47-10.22H1017V561.93h4.93Zm9.78,15.46h3.69v-2.15H1032a.75.75,0,0,1-.58-.23.66.66,0,0,1-.22-.54.72.72,0,0,1,.24-.49.79.79,0,0,1,.56-.21h3.36v-1.16a.66.66,0,0,1,.19-.47.69.69,0,0,1,1,0,.69.69,0,0,1,.2.47v1.16h4.13a.69.69,0,0,1,.51.23.72.72,0,0,1,.21.56.74.74,0,0,1-.24.49.68.68,0,0,1-.48.19h-4.13V591h4.75a.68.68,0,0,1,.5.2.67.67,0,0,1,0,1,.68.68,0,0,1-.49.2h-1.6v1.93h1.74a.7.7,0,0,1,.52.21.67.67,0,0,1,.21.48.65.65,0,0,1-.21.49.73.73,0,0,1-.52.2h-1.74v4.7a3.89,3.89,0,0,1-.21,1.46,1.74,1.74,0,0,1-.77.8,2.53,2.53,0,0,1-1.4.32,11.51,11.51,0,0,1-1.6-.16c-.71-.1-1.15-.29-1.29-.56a1.12,1.12,0,0,1-.1-.88c.09-.32.51-.36,1.27-.14.51.15.85.24,1,.27a1.79,1.79,0,0,0,.58,0,1.38,1.38,0,0,0,.82-.27.78.78,0,0,0,.3-.65v-4.92h-6.38a.66.66,0,0,1-.48-.21.7.7,0,0,1-.18-.54.68.68,0,0,1,.21-.45.64.64,0,0,1,.45-.18h6.38v-1.93h-6.83a.64.64,0,0,1-.47-.21.68.68,0,0,1-.18-.54.63.63,0,0,1,.2-.46A.64.64,0,0,1,1031.66,591Zm1.4,5.47a1,1,0,0,1,.5.14,3.34,3.34,0,0,1,.53.37c.16.14.47.48.94,1a13.73,13.73,0,0,1,.88,1.07.85.85,0,0,1,.17.52.57.57,0,0,1-.22.44.66.66,0,0,1-.52.2,1,1,0,0,1-.67-.31l-1-1.21-.87-.93a1.75,1.75,0,0,1-.3-.63.6.6,0,0,1,.09-.45A.52.52,0,0,1,1033.06,596.44Z" transform="translate(-842.27 -509.91)"/><path class="cls-2" d="M842.27,573.07l27.16-18.78v-9.16H842.27Z" transform="translate(-842.27 -509.91)"/><path class="cls-3" d="M907.87,533.52v11.61h34.2V509.91Z" transform="translate(-842.27 -509.91)"/></svg>